# ASF file generated by Tido's ASF writer for MATLAB.
:version 1.10
:name VICON
:units
  mass 1
  length 0.45000000000000001
  angle deg
:documentation
   .ast/.asf automatically generated from VICON data using
   VICON BodyBuilder and BodyLanguage model FoxedUp or BRILLIANT.MOD
:root
  axis xyz
  order tx ty tz rx ry rz 
  position 0 0 0
  orientation 0 0 0
:bonedata
  begin
    id 1
    name lhipjoint
    direction 0.44017800000000001 -0.82263900000000001 0.359871
    length 1.1390085000000001
    axis 0 0 0 xyz
  end
  begin
    id 2
    name lfemur
    direction 0.34201999999999999 -0.939693 0
    length 3.5465939999999998
    axis 0 0 20 xyz
    dof rx ry rz 
    limits (-160 20)
           (-70 70)
           (-60 70)
  end
  begin
    id 3
    name ltibia
    direction 0.34201999999999999 -0.939693 0
    length 3.7970234999999999
    axis 0 0 20 xyz
    dof rx 
    limits (-10 170)
  end
  begin
    id 4
    name lfoot
    direction 0.088635099999999994 -0.24352299999999999 0.96583699999999995
    length 1.1853629999999999
    axis -90 7.62852e-016 20 xyz
    dof rx rz 
    limits (-45 90)
           (-70 20)
  end
  begin
    id 5
    name ltoes
    direction 1.53703e-011 -4.2171700000000001e-011 1
    length 0.59142150000000004
    axis -90 7.62852e-016 20 xyz
    dof rx 
    limits (-90 20)
  end
  begin
    id 6
    name rhipjoint
    direction -0.399779 -0.83977299999999999 0.367367
    length 1.115766
    axis 0 0 0 xyz
  end
  begin
    id 7
    name rfemur
    direction -0.34201999999999999 -0.939693 0
    length 3.4866269999999999
    axis 0 0 -20 xyz
    dof rx ry rz 
    limits (-160 20)
           (-70 70)
           (-70 60)
  end
  begin
    id 8
    name rtibia
    direction -0.34201999999999999 -0.939693 0
    length 3.9349440000000002
    axis 0 0 -20 xyz
    dof rx 
    limits (-10 170)
  end
  begin
    id 9
    name rfoot
    direction -0.108514 -0.29813899999999999 0.94833400000000001
    length 1.1974590000000001
    axis -90 -7.62852e-016 -20 xyz
    dof rx rz 
    limits (-45 90)
           (-20 70)
  end
  begin
    id 10
    name rtoes
    direction -1.5339199999999999e-011 -4.2207699999999999e-011 1
    length 0.59392350000000005
    axis -90 -7.62852e-016 -20 xyz
    dof rx 
    limits (-90 20)
  end
  begin
    id 11
    name lowerback
    direction 0.011325699999999999 0.99986600000000003 0.0118602
    length 1.164123
    axis 0 0 0 xyz
    dof rx ry rz 
    limits (-20 45)
           (-30 30)
           (-30 30)
  end
  begin
    id 12
    name upperback
    direction -0.016474699999999998 0.99519299999999999 -0.096537499999999998
    length 1.135656
    axis 0 0 0 xyz
    dof rx ry rz 
    limits (-20 45)
           (-30 30)
           (-30 30)
  end
  begin
    id 13
    name thorax
    direction -0.019430099999999999 0.99433000000000005 -0.10455200000000001
    length 1.1524455
    axis 0 0 0 xyz
    dof rx ry rz 
    limits (-20 45)
           (-30 30)
           (-30 30)
  end
  begin
    id 14
    name lowerneck
    direction 0.014854300000000001 0.995587 -0.092657000000000003
    length 0.772119
    axis 0 0 0 xyz
    dof rx ry rz 
    limits (-20 45)
           (-30 30)
           (-30 30)
  end
  begin
    id 15
    name upperneck
    direction -0.0135467 0.99365599999999998 -0.111639
    length 0.76021650000000007
    axis 0 0 0 xyz
    dof rx ry rz 
    limits (-20 45)
           (-30 30)
           (-30 30)
  end
  begin
    id 16
    name head
    direction -0.0061534900000000002 0.99954699999999996 -0.029447999999999998
    length 0.78578999999999999
    axis 0 0 0 xyz
    dof rx ry rz 
    limits (-20 45)
           (-30 30)
           (-30 30)
  end
  begin
    id 17
    name lclavicle
    direction 0.98826700000000001 0.14988499999999999 0.029371299999999999
    length 2.012499
    axis 0 0 0 xyz
    dof ry rz 
    limits (-20 10)
           (0 20)
  end
  begin
    id 18
    name lhumerus
    direction 1 -4.4898600000000001e-011 -1.1483300000000001e-027
    length 2.4171659999999999
    axis 180 -30 -90 xyz
    dof rx ry rz 
    limits (-60 90)
           (-90 90)
           (-90 90)
  end
  begin
    id 19
    name lradius
    direction 0.99999800000000005 0.00170963 -0.00098705499999999992
    length 1.773954
    axis 180 -30 -90 xyz
    dof rx 
    limits (-10 170)
  end
  begin
    id 20
    name lwrist
    direction 0.99999800000000005 7.53149e-005 -0.00194706
    length 0.88697700000000002
    axis 4.6505600000000004e-015 90 90 xyz
    dof ry 
    limits (-180 0)
  end
  begin
    id 21
    name lhand
    direction 1 -4.48973e-011 -1.3174599999999999e-026
    length 0.5306265
    axis 8.4064999999999996e-015 90 90 xyz
    dof rx rz 
    limits (-90 90)
           (-45 45)
  end
  begin
    id 22
    name lfingers
    direction 1 -4.49107e-011 -2.6349199999999999e-026
    length 0.42780555000000003
    axis 1.6812999999999999e-014 90 90 xyz
    dof rx 
    limits (0 90)
  end
  begin
    id 23
    name lthumb
    direction 0.70710700000000004 -6.3504800000000005e-011 0.70710700000000004
    length 0.6142455
    axis -90 45 2.8529899999999998e-015 xyz
    dof rx rz 
    limits (-45 45)
           (-45 45)
  end
  begin
    id 24
    name rclavicle
    direction -0.996699 0.064289499999999999 -0.049572499999999999
    length 2.0817494999999999
    axis 0 0 0 xyz
    dof ry rz 
    limits (-10 20)
           (-20 0)
  end
  begin
    id 25
    name rhumerus
    direction -1 -4.4891899999999998e-011 -2.4105900000000001e-027
    length 2.474145
    axis 180 30 90 xyz
    dof rx ry rz 
    limits (-90 60)
           (-90 90)
           (-90 90)
  end
  begin
    id 26
    name rradius
    direction -0.99999899999999997 0.0011810099999999999 -0.00068185800000000003
    length 1.5677145000000001
    axis 180 30 90 xyz
    dof rx 
    limits (-10 170)
  end
  begin
    id 27
    name rwrist
    direction -0.99999899999999997 0.000321823 -0.00132288
    length 0.78385499999999997
    axis 4.6505600000000004e-015 -90 -90 xyz
    dof ry 
    limits (-180 0)
  end
  begin
    id 28
    name rhand
    direction -1 -4.4902199999999998e-011 -1.3174599999999999e-026
    length 0.60719400000000001
    axis 8.4064999999999996e-015 -90 -90 xyz
    dof rx rz 
    limits (-90 90)
           (-45 45)
  end
  begin
    id 29
    name rfingers
    direction -1 -4.4917800000000002e-011 -2.6349199999999999e-026
    length 0.48953249999999998
    axis 1.6812999999999999e-014 -90 -90 xyz
    dof rx 
    limits (0 90)
  end
  begin
    id 30
    name rthumb
    direction -0.70710700000000004 -6.3471300000000002e-011 0.70710700000000004
    length 0.70287750000000004
    axis -90 -45 -2.8529899999999998e-015 xyz
    dof rx rz 
    limits (-45 45)
           (-45 45)
  end
:hierarchy
begin
  root lhipjoint rhipjoint lowerback 
  lhipjoint lfemur 
  lfemur ltibia 
  ltibia lfoot 
  lfoot ltoes 
  rhipjoint rfemur 
  rfemur rtibia 
  rtibia rfoot 
  rfoot rtoes 
  lowerback upperback 
  upperback thorax 
  thorax lowerneck lclavicle rclavicle 
  lowerneck upperneck 
  upperneck head 
  lclavicle lhumerus 
  lhumerus lradius 
  lradius lwrist 
  lwrist lhand lthumb 
  lhand lfingers 
  rclavicle rhumerus 
  rhumerus rradius 
  rradius rwrist 
  rwrist rhand rthumb 
  rhand rfingers 
end

# AMC file generated by Tido's AMC writer for MATLAB on 27-Nov-2005 at 18:24:20
# Corresponding ASF file: S:\data_MoCap\MoCaDaDB\HDM\Bonn_ASF_AMC_Use IK_on\björn\bjorn.asf
# Number of frames: 542
# Sampling rate: 120
:fully-specified
:degrees
34
root -8.1567000000000007 8.5667849999999994 -5.4178199999999999 184.96700000000001 -2.6514600000000002 540.83199999999999 
lfemur -10.655900000000001 8.9049600000000009 -14.4382 
ltibia 31.029499999999999 
lfoot -20.123799999999999 -12.1197 
ltoes -18.403199999999998 
rfemur -29.145800000000001 -16.083300000000001 19.921500000000002 
rtibia 45.9876 
rfoot -18.331700000000001 13.524800000000001 
rtoes -17.586099999999998 
lowerback -1.8529 0.63570499999999996 -8.1026600000000002 
upperback 9.2402300000000004 0.72049300000000005 -3.8430900000000001 
thorax 10.8878 -0.595244 0.36718899999999999 
lowerneck 1.67465 -6.4552699999999996 -0.44459599999999999 
upperneck 16.942399999999999 -12.7188 11.4741 
head 5.62392 -6.3048299999999999 2.9985499999999998 
lclavicle 2.38542e-015 3.18055e-015 
lhumerus -22.9358 10.9892 78.290700000000001 
lradius 17.985499999999998 
lwrist -39.101100000000002 
lhand -9.9665900000000001 -2.53301 
lfingers 7.1250200000000001 
lthumb 16.015799999999999 26.824999999999999 
rclavicle 2.38542e-015 3.18055e-015 
rhumerus -28.940100000000001 -17.8672 -89.570999999999998 
rradius 23.605599999999999 
rwrist 11.1235 
rhand -11.009399999999999 14.231 
rfingers 7.1250200000000001 
rthumb 15.0115 -15.204800000000001 
35
root -8.1489150000000006 8.5709250000000008 -5.4441000000000006 184.97 -2.4792900000000002 540.80999999999995 
lfemur -10.1396 8.9332200000000004 -14.3851 
ltibia 30.4815 
lfoot -20.001000000000001 -11.9383 
ltoes -18.370200000000001 
rfemur -29.737500000000001 -16.034600000000001 19.9255 
rtibia 45.156700000000001 
rfoot -18.1812 12.9282 
rtoes -17.6752 
lowerback -1.77301 0.541995 -8.3345500000000001 
upperback 9.2283299999999997 0.592943 -3.7889699999999999 
thorax 10.8362 -0.67920999999999998 0.54025199999999995 
lowerneck 1.70231 -6.4972099999999999 -0.50004199999999999 
upperneck 16.8276 -12.7689 11.533799999999999 
head 5.5932899999999997 -6.3350400000000002 3.0256500000000002 
lclavicle -4.7708300000000003e-015 -3.33958e-014 
lhumerus -23.030200000000001 9.0100300000000004 78.864400000000003 
lradius 18.968299999999999 
lwrist -37.4617 
lhand -9.2784300000000002 -1.86232 
lfingers 7.1250200000000001 
lthumb 16.6784 27.441199999999998 
rclavicle -4.7708300000000003e-015 -3.33958e-014 
rhumerus -29.191700000000001 -17.9466 -89.320700000000002 
rradius 23.356999999999999 
rwrist 11.377599999999999 
rhand -10.9526 14.2888 
rfingers 7.1250200000000001 
rthumb 15.0661 -15.143000000000001 
36
root -8.1406349999999996 8.5744800000000012 -5.4711449999999999 184.99799999999999 -2.3083900000000002 540.78800000000001 
lfemur -9.65733 9.0265400000000007 -14.332599999999999 
ltibia 29.942 
lfoot -19.8567 -11.7943 
ltoes -18.285599999999999 
rfemur -30.3581 -16.070399999999999 19.952999999999999 
rtibia 44.287500000000001 
rfoot -17.8855 12.3775 
rtoes -17.5183 
lowerback -1.7215100000000001 0.44058199999999997 -8.55016 
upperback 9.2034400000000005 0.459171 -3.7548400000000002 
thorax 10.789300000000001 -0.76274900000000001 0.682481 
lowerneck 1.7473399999999999 -6.5283600000000002 -0.47368700000000002 
upperneck 16.712900000000001 -12.817600000000001 11.6059 
head 5.5563200000000004 -6.3633800000000003 3.0443500000000001 
lclavicle -2.22639e-014 -6.3611099999999997e-014 
lhumerus -23.1648 7.2307199999999998 79.330200000000005 
lradius 19.975100000000001 
lwrist -36.060200000000002 
lhand -8.8808799999999994 -1.45028 
lfingers 7.1250200000000001 
lthumb 17.0611 27.820599999999999 
rclavicle -2.22639e-014 -6.3611099999999997e-014 
rhumerus -29.4252 -18.261399999999998 -89.051299999999998 
rradius 23.040700000000001 
rwrist 11.888 
rhand -10.9049 14.3828 
rfingers 7.1250200000000001 
rthumb 15.1121 -15.045500000000001 
37
root -8.1324000000000005 8.5771350000000002 -5.4987750000000002 185.00200000000001 -2.1251000000000002 540.76499999999999 
lfemur -9.1436799999999998 9.0565599999999993 -14.2837 
ltibia 29.412099999999999 
lfoot -19.764500000000002 -11.553800000000001 
ltoes -18.398199999999999 
rfemur -30.960999999999999 -16.141400000000001 19.980599999999999 
rtibia 43.389600000000002 
rfoot -17.504000000000001 11.8706 
rtoes -17.052099999999999 
lowerback -1.65835 0.34903699999999999 -8.7140000000000004 
upperback 9.1913999999999998 0.332486 -3.72898 
thorax 10.7498 -0.83937700000000004 0.78767600000000004 
lowerneck 1.79409 -6.5664999999999996 -0.49104799999999998 
upperneck 16.568100000000001 -12.884 11.752800000000001 
head 5.5181100000000001 -6.4005700000000001 3.0925199999999999 
lclavicle 2.54444e-014 6.8381900000000006e-014 
lhumerus -23.239899999999999 5.6687799999999999 79.738 
lradius 20.906700000000001 
lwrist -34.827199999999998 
lhand -8.8208900000000003 -1.2357199999999999 
lfingers 7.1250200000000001 
lthumb 17.1188 28.030100000000001 
rclavicle 2.54444e-014 6.8381900000000006e-014 
rhumerus -29.613099999999999 -18.285399999999999 -88.8035 
rradius 22.766400000000001 
rwrist 12.0251 
rhand -10.789 14.385400000000001 
rfingers 7.1250200000000001 
rthumb 15.223800000000001 -15.0345 
